<svg width="547" height="124" viewBox="0 0 547 124" fill="none" xmlns="http://www.w3.org/2000/svg">
<path d="M99.4932 0C112.341 0 122.756 10.4129 122.756 23.2578V99.4727C122.756 112.317 112.341 122.73 99.4932 122.73H23.2627C10.4152 122.73 0.00021034 112.317 0 99.4727V23.2578C0 10.4129 10.4151 1.64906e-05 23.2627 0H99.4932ZM51.1797 39.5381C44.7559 39.5381 39.5488 44.7445 39.5488 51.167V71.2744C39.549 77.6968 44.7559 82.9033 51.1797 82.9033H71.291C77.7148 82.9033 82.9227 77.6968 82.9229 71.2744V51.167C82.9229 44.7445 77.7149 39.5381 71.291 39.5381H51.1797Z" fill="white"/>
<path d="M240.86 0H164.629C151.781 0 141.366 10.4129 141.366 23.2578V99.4723C141.366 112.317 151.781 122.73 164.629 122.73H240.86C253.707 122.73 264.122 112.317 264.122 99.4723V23.2578C264.122 10.4129 253.707 0 240.86 0Z" fill="white"/>
<path d="M344.111 122.73C378.009 122.73 405.489 95.256 405.489 61.365C405.489 27.4741 378.009 0 344.111 0C310.213 0 282.733 27.4741 282.733 61.365C282.733 95.256 310.213 122.73 344.111 122.73Z" fill="white"/>
<path fill-rule="evenodd" clip-rule="evenodd" d="M429.882 60.4683C429.076 60.4683 428.191 60.8422 427.497 61.2557C425.708 62.3215 423.978 63.9893 424.106 66.066C426.088 98.2699 452.837 123.776 485.549 123.776C518.291 123.776 545.063 98.2187 546.995 65.9686C547.12 63.9455 545.44 62.3157 543.71 61.2627C543.027 60.8484 542.146 60.4683 541.351 60.4683H429.882Z" fill="white"/>
</svg>
