<svg width="547" height="201" viewBox="0 0 547 201" fill="none" xmlns="http://www.w3.org/2000/svg">
<path d="M99.4932 0C112.341 0 122.756 10.4129 122.756 23.2578V99.4727C122.756 112.317 112.341 122.73 99.4932 122.73H23.2627C10.4152 122.73 0.00021034 112.317 0 99.4727V23.2578C0 10.4129 10.4151 1.64906e-05 23.2627 0H99.4932ZM51.1797 39.5381C44.7559 39.5381 39.5488 44.7445 39.5488 51.167V71.2744C39.549 77.6968 44.7559 82.9033 51.1797 82.9033H71.291C77.7148 82.9033 82.9227 77.6968 82.9229 71.2744V51.167C82.9229 44.7445 77.7148 39.5381 71.291 39.5381H51.1797Z" fill="white"/>
<path d="M240.86 0H164.629C151.781 0 141.366 10.4129 141.366 23.2578V99.4723C141.366 112.317 151.781 122.73 164.629 122.73H240.86C253.707 122.73 264.122 112.317 264.122 99.4723V23.2578C264.122 10.4129 253.707 0 240.86 0Z" fill="white"/>
<path d="M344.111 122.73C378.009 122.73 405.489 95.256 405.489 61.365C405.489 27.4741 378.009 0 344.111 0C310.213 0 282.733 27.4741 282.733 61.365C282.733 95.256 310.213 122.73 344.111 122.73Z" fill="white"/>
<path fill-rule="evenodd" clip-rule="evenodd" d="M429.882 60.4683C429.076 60.4683 428.191 60.8422 427.497 61.2557C425.708 62.3215 423.978 63.9893 424.106 66.066C426.088 98.2699 452.837 123.776 485.549 123.776C518.291 123.776 545.063 98.2187 546.995 65.9686C547.12 63.9455 545.44 62.3157 543.71 61.2627C543.027 60.8484 542.146 60.4683 541.351 60.4683H429.882Z" fill="white"/>
<path d="M82.2758 167.604H75.4845V178.849H70.0195V152.432H75.4845V163.094H82.2758V167.604ZM62.3257 176.887H39.7233V154.872H45.1883V161.344H56.9139V154.872H62.3257V176.887ZM56.9139 165.641H45.1883V172.484H56.9139V165.641ZM70.0722 180.971H75.4845V199.803H44.8166V180.971H50.2284V186.011H70.0722V180.971ZM70.0722 190.254H50.2284V195.4H70.0722V190.254Z" fill="white"/>
<path d="M219.255 152.485V180.812H213.79V168.664H203.815V177.842H181.636V156.039H203.815V164.209H213.79V152.485H219.255ZM198.509 160.389H186.995V173.492H198.509V160.389ZM186.942 183.252H219.255V200.492H213.79V187.655H186.942V183.252Z" fill="white"/>
<path d="M360.85 152.432V200.492H355.332V174.765H346.046C345.463 184.048 340.475 189.777 333.949 189.777C326.892 189.777 321.852 183.252 321.852 172.855C321.852 162.564 326.892 155.986 333.949 155.986C340.369 155.986 345.304 161.556 345.993 170.309H355.332V152.432H360.85ZM333.949 184.897C338.194 184.897 340.9 180.547 340.9 172.855C340.9 165.375 338.194 160.92 333.949 160.92C329.863 160.92 327.052 165.375 327.052 172.855C327.052 180.547 329.863 184.897 333.949 184.897Z" fill="white"/>
<path d="M483.733 196.992C475.086 196.992 469.197 192.27 469.197 179.539V157.259H475.35V179.963C475.35 188.769 478.903 191.634 483.733 191.634C488.668 191.634 492.276 188.769 492.276 179.963V157.259H498.219V179.539C498.219 192.27 492.435 196.992 483.733 196.992Z" fill="white"/>
</svg>
